<?xml version="1.0" standalone="no"?>
<!DOCTYPE svg PUBLIC "-//W3C//DTD SVG 20010904//EN"
 "http://www.w3.org/TR/2001/REC-SVG-20010904/DTD/svg10.dtd">
<svg version="1.0" xmlns="http://www.w3.org/2000/svg"
 width="512.000000pt" height="512.000000pt" viewBox="0 0 512.000000 512.000000"
 preserveAspectRatio="xMidYMid meet">

<g transform="translate(0.000000,512.000000) scale(0.100000,-0.100000)"
fill="#004D8D" stroke="none">
<path d="M2358 5021 c-15 -12 -38 -54 -57 -104 -32 -82 -34 -85 -74 -96 -23
-7 -76 -28 -118 -47 l-75 -35 -81 35 c-45 20 -94 36 -109 36 -40 0 -294 -253
-294 -292 0 -15 16 -61 35 -104 19 -42 35 -78 35 -79 0 -2 -249 -146 -552
-321 -304 -176 -561 -327 -570 -336 -33 -33 -21 -68 88 -259 59 -101 120 -209
137 -239 l31 -56 -137 -237 c-89 -154 -137 -246 -137 -265 0 -38 18 -53 163
-137 l122 -71 5 -653 c5 -652 5 -653 26 -670 52 -42 1745 -1011 1766 -1011 21
1 1688 956 1755 1006 l28 21 5 654 5 653 120 69 c142 81 165 101 165 139 0 19
-48 112 -137 265 l-137 237 31 56 c17 30 78 138 137 239 109 191 121 226 88
259 -9 9 -266 160 -570 336 -303 175 -552 319 -552 321 0 1 16 37 35 79 19 43
35 89 35 104 0 39 -254 292 -294 292 -15 0 -64 -16 -109 -36 l-81 -35 -75 35
c-42 19 -95 40 -118 47 -40 11 -42 14 -74 96 -48 124 -45 123 -259 123 -160 0
-180 -2 -202 -19z m334 -221 c16 -40 33 -79 39 -86 6 -7 46 -24 90 -38 44 -14
118 -45 165 -68 94 -47 99 -47 212 3 l53 23 71 -71 72 -72 -32 -73 c-18 -40
-32 -83 -32 -96 0 -12 18 -58 39 -101 22 -43 52 -115 66 -160 15 -45 34 -87
43 -92 10 -6 49 -23 87 -38 l70 -27 0 -103 0 -104 -75 -28 c-41 -16 -80 -35
-88 -43 -8 -8 -27 -52 -42 -98 -15 -47 -43 -115 -63 -153 -21 -38 -37 -80 -37
-93 0 -13 14 -54 30 -92 17 -38 30 -72 30 -77 0 -5 -31 -40 -69 -77 l-70 -69
-72 31 c-39 18 -84 32 -99 32 -14 0 -61 -18 -103 -40 -42 -22 -110 -49 -149
-61 -40 -12 -81 -29 -90 -38 -9 -9 -30 -50 -46 -91 l-30 -75 -102 0 -102 0
-30 75 c-16 41 -37 82 -46 91 -9 9 -50 26 -90 38 -39 12 -107 39 -149 61 -42
22 -89 40 -103 40 -15 0 -60 -14 -99 -32 l-72 -32 -72 72 -71 71 23 53 c50
114 50 116 -1 225 -26 54 -56 128 -68 165 -11 36 -27 72 -35 78 -7 6 -46 24
-87 39 l-73 28 0 104 0 103 70 27 c38 15 77 32 87 38 9 5 28 47 43 92 14 45
44 117 66 160 21 43 39 89 39 101 0 13 -14 56 -32 96 l-32 73 72 72 71 71 53
-23 c113 -50 118 -50 212 -3 46 23 119 53 161 67 43 14 84 30 91 35 6 6 22 39
35 73 38 106 27 98 142 95 l101 -3 28 -75z m-1372 -1004 c0 -158 2 -176 20
-199 11 -13 31 -28 45 -31 14 -4 25 -10 25 -14 0 -9 -529 -316 -535 -311 -16
17 -204 353 -200 358 9 9 629 369 638 370 4 1 7 -77 7 -173z m2802 -7 c172
-99 316 -184 321 -188 6 -6 -178 -339 -198 -360 -6 -6 -535 302 -535 311 0 4
7 8 16 8 8 0 29 13 45 29 l29 29 0 176 c0 97 2 176 4 176 2 0 145 -81 318
-181z m-2537 -435 l37 -82 -36 -81 c-20 -45 -36 -94 -36 -108 0 -20 30 -56
128 -154 79 -80 138 -130 155 -135 21 -5 49 3 112 31 l84 37 93 -39 c51 -22
105 -43 120 -47 22 -5 31 -19 59 -91 47 -126 45 -125 259 -125 214 0 212 -1
259 124 26 69 36 85 57 90 13 4 68 25 120 47 l96 41 83 -37 c63 -28 92 -36
112 -31 17 5 77 56 156 135 97 98 127 134 127 154 0 14 -16 63 -36 107 l-36
82 38 84 c36 79 39 83 59 70 11 -7 132 -77 268 -156 l249 -143 -29 -17 c-15
-10 -364 -212 -775 -449 l-747 -431 -773 446 c-425 245 -774 447 -776 449 -1
1 118 72 265 158 147 85 269 154 269 153 1 0 18 -38 39 -82z m77 -790 c425
-245 776 -449 780 -452 5 -5 -175 -334 -198 -361 -2 -3 -1499 857 -1562 898
-10 6 11 50 88 185 56 97 106 176 111 176 5 0 356 -201 781 -446z m2688 270
c77 -135 98 -179 88 -186 -36 -23 -1537 -888 -1549 -893 -10 -3 -44 48 -116
173 -56 97 -99 180 -95 183 4 4 185 109 402 235 217 125 564 325 770 445 206
120 380 218 387 218 6 1 57 -78 113 -175z m-2540 -1023 c287 -166 444 -251
463 -251 39 0 63 28 137 158 l65 114 3 -380 c1 -209 1 -554 0 -765 l-3 -385
-772 446 -773 446 0 562 0 563 223 -128 c122 -71 418 -242 657 -380z m2380
-54 l0 -564 -772 -446 -773 -446 -3 385 c-1 212 -1 557 0 766 l3 380 65 -114
c74 -131 98 -158 137 -158 20 0 217 109 603 332 316 182 611 353 655 379 44
26 81 48 83 48 1 1 2 -252 2 -562z"/>
<path d="M2395 4491 c-241 -59 -433 -238 -512 -476 -24 -71 -27 -96 -27 -215
0 -122 2 -143 27 -215 121 -349 465 -551 814 -479 258 53 452 225 540 479 25
72 27 93 27 215 0 119 -3 144 -27 215 -38 115 -91 199 -183 291 -134 134 -308
205 -501 203 -48 0 -119 -8 -158 -18z m293 -156 c98 -23 179 -70 258 -149 118
-118 173 -264 161 -425 -18 -237 -182 -432 -413 -491 -98 -25 -170 -25 -268 0
-97 25 -160 59 -235 126 -105 96 -167 222 -178 365 -12 162 42 306 159 423
142 142 326 196 516 151z"/>
<path d="M2505 4255 c-14 -13 -25 -35 -25 -48 0 -18 -10 -28 -40 -42 -51 -23
-114 -90 -130 -140 -18 -54 -7 -139 24 -186 34 -51 95 -85 199 -110 47 -12 99
-30 117 -40 26 -16 31 -25 28 -52 -4 -40 -43 -62 -114 -62 -67 0 -101 20 -129
76 -34 66 -85 80 -130 34 -61 -60 7 -192 128 -245 26 -11 47 -27 47 -35 0 -55
59 -96 109 -76 27 12 51 47 51 75 0 7 21 21 47 31 56 22 121 79 140 122 22 54
16 124 -15 184 -36 69 -104 112 -214 136 -97 21 -138 44 -138 78 0 77 134 102
190 36 14 -16 32 -40 41 -52 21 -30 81 -32 110 -3 28 29 27 74 -5 129 -26 43
-91 96 -138 111 -11 3 -18 15 -18 30 0 35 -42 74 -80 74 -19 0 -40 -9 -55 -25z"/>
</g>
</svg>
